<svg width="106" height="102" viewBox="0 0 106 102" fill="none" xmlns="http://www.w3.org/2000/svg">
<ellipse cx="52.8274" cy="50.8708" rx="52.8274" ry="50.8708" fill="#0A1B56"/>
<mask id="mask0" mask-type="alpha" maskUnits="userSpaceOnUse" x="27" y="30" width="52" height="46">
<path d="M68.5806 75.4376L68.5166 48.5576L55.3326 70.7016H50.6606L37.5406 49.1336V75.4376H27.8126V30.6376H36.3886L53.1566 58.4776L69.6686 30.6376H78.1806L78.3086 75.4376H68.5806Z" fill="white"/>
</mask>
<g mask="url(#mask0)">
<path d="M68.5806 75.4376L68.5166 48.5576L55.3326 70.7016H50.6606L37.5406 49.1336V75.4376H27.8126V30.6376H36.3886L53.1566 58.4776L69.6686 30.6376H78.1806L78.3086 75.4376H68.5806Z" fill="white"/>
<path d="M9 133L15.9027 32.7895L35.0177 21L53.0708 38.6842L65.8142 68.1579L44.5752 93.2105L69 133H9Z" fill="url(#paint0_linear)"/>
</g>
<defs>
<linearGradient id="paint0_linear" x1="39" y1="21" x2="39" y2="133" gradientUnits="userSpaceOnUse">
<stop stop-color="#DA6900"/>
<stop offset="1" stop-color="#2C1704"/>
</linearGradient>
</defs>
</svg>
